<?xml version="1.0" encoding="UTF-8" standalone="no"?>
<!DOCTYPE svg PUBLIC "-//W3C//DTD SVG 1.1//EN" "http://www.w3.org/Graphics/SVG/1.1/DTD/svg11.dtd">
<svg width="100%" height="100%" viewBox="0 0 6000 1171" version="1.1" xmlns="http://www.w3.org/2000/svg" xmlns:xlink="http://www.w3.org/1999/xlink" xml:space="preserve" xmlns:serif="http://www.serif.com/" style="fill-rule:evenodd;clip-rule:evenodd;stroke-linejoin:round;stroke-miterlimit:2;">
    <g id="_2" serif:id="2">
        <g transform="matrix(14.3355,0,0,14.3355,162.359,1116.14)">
            <path d="M0,-62.807C-4.193,-19.061 30.28,-19.305 29.768,-19.012C38.271,-19.012 45.51,-24.499 48.12,-32.123L66.322,-26.604C61.344,-11.166 46.842,0 29.768,0C8.512,0 -8.674,-17.204 -8.674,-38.41C-8.674,-47.661 -5.438,-56.175 0,-62.807Z" style="fill:white;fill-rule:nonzero;"/>
        </g>
        <g transform="matrix(1.89738,0,0,1.89738,-70.4248,-2489.01)">
            <circle cx="339.5" cy="1612.5" r="68.5" style="fill:white;"/>
        </g>
        <path d="M263.869,121.178C355.013,54.317 467.471,14.808 589.084,14.808C646.868,14.808 704.293,23.903 759.249,41.76L674.167,303.617C646.688,294.689 617.976,290.141 589.084,290.141C437.124,290.141 313.752,413.513 313.752,565.474C313.752,584.605 315.707,603.282 319.428,621.315C197.487,462.662 213.615,172.829 263.869,121.178Z" style="fill:white;"/>
    </g>
    <g transform="matrix(3.89784,0,0,2.83924,-1186.02,-5455.42)">
        <g transform="matrix(333.856,0,0,458.333,674,2280.83)">
            <path d="M0.332,-0.487L0.332,-0.022L0.138,-0.022L0.138,-0.487L-0.044,-0.487L-0.044,-0.647L0.514,-0.647L0.514,-0.487L0.332,-0.487Z" style="fill:white;fill-rule:nonzero;"/>
        </g>
        <g transform="matrix(318.924,0,0,433.994,801.296,2268.5)">
            <path d="M0.379,-0.178L0.561,-0.175C0.55,-0.126 0.523,-0.076 0.479,-0.041C0.435,-0.007 0.375,0.01 0.3,0.01C0.216,0.01 0.149,-0.014 0.1,-0.062C0.05,-0.111 0.025,-0.171 0.025,-0.242C0.025,-0.316 0.049,-0.379 0.099,-0.43C0.148,-0.481 0.213,-0.507 0.295,-0.507C0.375,-0.507 0.439,-0.483 0.488,-0.435C0.537,-0.386 0.562,-0.321 0.562,-0.238C0.562,-0.231 0.561,-0.222 0.561,-0.209L0.229,-0.209C0.229,-0.178 0.235,-0.155 0.245,-0.14C0.256,-0.125 0.275,-0.117 0.305,-0.117C0.347,-0.117 0.372,-0.138 0.379,-0.178ZM0.366,-0.307C0.366,-0.341 0.359,-0.363 0.346,-0.375C0.333,-0.386 0.317,-0.392 0.297,-0.392C0.251,-0.392 0.228,-0.364 0.228,-0.307L0.366,-0.307Z" style="fill:white;fill-rule:nonzero;"/>
        </g>
        <g transform="matrix(333.856,0,0,442.774,980.013,2272.95)">
            <path d="M0.351,-0.2L0.506,-0.197C0.498,-0.139 0.484,-0.081 0.444,-0.044C0.403,-0.008 0.348,0.01 0.281,0.01C0.205,0.01 0.143,-0.014 0.096,-0.061C0.049,-0.109 0.025,-0.17 0.025,-0.245C0.025,-0.321 0.048,-0.384 0.095,-0.433C0.142,-0.482 0.204,-0.507 0.279,-0.507C0.346,-0.507 0.4,-0.488 0.442,-0.451C0.484,-0.414 0.497,-0.355 0.503,-0.298L0.344,-0.295C0.337,-0.348 0.317,-0.374 0.284,-0.374C0.263,-0.374 0.248,-0.365 0.239,-0.345C0.229,-0.326 0.224,-0.293 0.224,-0.246C0.224,-0.205 0.229,-0.175 0.239,-0.156C0.248,-0.136 0.265,-0.126 0.289,-0.126C0.323,-0.126 0.344,-0.151 0.351,-0.2Z" style="fill:white;fill-rule:nonzero;"/>
        </g>
        <g transform="matrix(321.837,0,0,428.963,1144.35,2272.95)">
            <path d="M0.536,-0.005L0.341,-0.005L0.341,-0.313C0.341,-0.338 0.337,-0.355 0.329,-0.362C0.321,-0.369 0.311,-0.373 0.299,-0.373C0.264,-0.373 0.246,-0.348 0.246,-0.298L0.246,-0.005L0.056,-0.005L0.056,-0.497L0.232,-0.497L0.232,-0.426C0.259,-0.48 0.306,-0.507 0.375,-0.507C0.411,-0.507 0.442,-0.5 0.467,-0.486C0.491,-0.472 0.509,-0.454 0.52,-0.432C0.531,-0.41 0.536,-0.372 0.536,-0.318L0.536,-0.005Z" style="fill:white;fill-rule:nonzero;"/>
        </g>
        <g transform="matrix(308.458,0,0,442.774,1314.32,2272.95)">
            <path d="M0.294,0.01C0.212,0.01 0.146,-0.015 0.098,-0.067C0.049,-0.118 0.025,-0.178 0.025,-0.247C0.025,-0.321 0.05,-0.383 0.101,-0.433C0.151,-0.482 0.217,-0.507 0.298,-0.507C0.38,-0.507 0.446,-0.482 0.495,-0.434C0.545,-0.385 0.57,-0.324 0.57,-0.25C0.57,-0.176 0.545,-0.114 0.494,-0.064C0.444,-0.015 0.377,0.01 0.294,0.01ZM0.297,-0.119C0.327,-0.119 0.346,-0.135 0.352,-0.166C0.359,-0.198 0.362,-0.219 0.362,-0.253C0.362,-0.3 0.358,-0.322 0.348,-0.343C0.339,-0.363 0.322,-0.373 0.297,-0.373C0.275,-0.373 0.258,-0.363 0.248,-0.342C0.238,-0.321 0.232,-0.297 0.232,-0.249C0.232,-0.192 0.238,-0.165 0.249,-0.147C0.259,-0.128 0.275,-0.119 0.297,-0.119Z" style="fill:white;fill-rule:nonzero;"/>
        </g>
        <g transform="matrix(333.856,0,0,442.774,1489.55,2272.95)">
            <path d="M0.351,-0.2L0.506,-0.197C0.498,-0.139 0.484,-0.081 0.444,-0.044C0.403,-0.008 0.348,0.01 0.281,0.01C0.205,0.01 0.143,-0.014 0.096,-0.061C0.049,-0.109 0.025,-0.17 0.025,-0.245C0.025,-0.321 0.048,-0.384 0.095,-0.433C0.142,-0.482 0.204,-0.507 0.279,-0.507C0.346,-0.507 0.4,-0.488 0.442,-0.451C0.484,-0.414 0.497,-0.355 0.503,-0.298L0.344,-0.295C0.337,-0.348 0.317,-0.374 0.284,-0.374C0.263,-0.374 0.248,-0.365 0.239,-0.345C0.229,-0.326 0.224,-0.293 0.224,-0.246C0.224,-0.205 0.229,-0.175 0.239,-0.156C0.248,-0.136 0.265,-0.126 0.289,-0.126C0.323,-0.126 0.344,-0.151 0.351,-0.2Z" style="fill:white;fill-rule:nonzero;"/>
        </g>
        <g transform="matrix(308.458,0,0,442.774,1661.56,2272.95)">
            <path d="M0.294,0.01C0.212,0.01 0.146,-0.015 0.098,-0.067C0.049,-0.118 0.025,-0.178 0.025,-0.247C0.025,-0.321 0.05,-0.383 0.101,-0.433C0.151,-0.482 0.217,-0.507 0.298,-0.507C0.38,-0.507 0.446,-0.482 0.495,-0.434C0.545,-0.385 0.57,-0.324 0.57,-0.25C0.57,-0.176 0.545,-0.114 0.494,-0.064C0.444,-0.015 0.377,0.01 0.294,0.01ZM0.297,-0.119C0.327,-0.119 0.346,-0.135 0.352,-0.166C0.359,-0.198 0.362,-0.219 0.362,-0.253C0.362,-0.3 0.358,-0.322 0.348,-0.343C0.339,-0.363 0.322,-0.373 0.297,-0.373C0.275,-0.373 0.258,-0.363 0.248,-0.342C0.238,-0.321 0.232,-0.297 0.232,-0.249C0.232,-0.192 0.238,-0.165 0.249,-0.147C0.259,-0.128 0.275,-0.119 0.297,-0.119Z" style="fill:white;fill-rule:nonzero;"/>
        </g>
    </g>
</svg>
