<?xml version="1.0" encoding="UTF-8" standalone="no"?>
<!DOCTYPE svg PUBLIC "-//W3C//DTD SVG 1.1//EN" "http://www.w3.org/Graphics/SVG/1.1/DTD/svg11.dtd">
<svg width="100%" height="100%" viewBox="0 0 300 300" version="1.1" xmlns="http://www.w3.org/2000/svg" xmlns:xlink="http://www.w3.org/1999/xlink" xml:space="preserve" xmlns:serif="http://www.serif.com/" style="fill-rule:evenodd;clip-rule:evenodd;stroke-linejoin:round;stroke-miterlimit:2;">
    <g transform="matrix(0.543855,0,0,0.543855,-546.019,-284.064)">
        <g transform="matrix(1,0,0,1,1415.92,837.065)">
            <path d="M0,-51.987C0,-0.699 -0.066,40.923 0.054,82.545C0.079,91.119 -2.186,99.092 -6.506,106.149C-9.795,111.522 -14.049,116.502 -19.614,120.067C-25.353,123.745 -31.427,126.212 -38.179,127.433C-43.2,128.342 -48.04,130.229 -52.981,131.607C-54.58,132.052 -56.262,132.192 -57.874,132.598C-63.427,133.996 -68.945,135.532 -74.514,136.857C-79.627,138.075 -84.816,138.977 -89.92,140.229C-93.693,141.155 -97.375,142.448 -101.115,143.52C-102.583,143.94 -104.093,144.217 -105.589,144.535C-110.752,145.633 -115.949,146.589 -121.071,147.85C-126.075,149.082 -130.982,150.701 -135.971,151.997C-139.645,152.95 -143.411,153.549 -147.086,154.499C-152.244,155.831 -157.349,157.366 -162.49,158.763C-163.956,159.161 -165.472,159.367 -166.96,159.685C-170.645,160.472 -174.348,161.191 -178.006,162.088C-191.192,165.323 -198.316,164.311 -201.57,163.706C-206.072,162.869 -209.183,159.776 -211.835,156.541C-213.969,153.936 -215.964,150.646 -216.488,147.412C-217.584,140.644 -218.095,133.713 -218.104,126.848C-218.193,60.699 -218.18,-5.451 -218.006,-71.599C-217.992,-76.681 -217.615,-82.292 -215.455,-86.701C-212.907,-91.903 -208.707,-96.588 -204.348,-100.531C-199.971,-104.489 -194.66,-107.503 -189.497,-110.478C-184.589,-113.306 -179.392,-115.658 -174.23,-118.018C-168.795,-120.503 -163.308,-122.895 -157.739,-125.057C-152.25,-127.189 -146.62,-128.957 -141.069,-130.931C-135.893,-132.77 -130.789,-134.827 -125.559,-136.494C-121.377,-137.826 -117.047,-138.687 -112.797,-139.809C-107.591,-141.184 -102.413,-142.661 -97.199,-144.003C-92.584,-145.191 -87.831,-145.942 -83.329,-147.452C-77.794,-149.307 -72.333,-151.492 -67.061,-153.997C-58.394,-158.116 -53.041,-165.363 -48.795,-173.782C-45.136,-181.038 -40.976,-188.065 -36.667,-194.961C-33.31,-200.335 -29.452,-205.404 -25.693,-210.517C-21.975,-215.573 -14.63,-218.159 -9.663,-215.135C-5.382,-212.529 -2.904,-200.421 -2.311,-194.444C2.713,-143.811 -1.576,-93.02 0,-51.987" style="fill:#0079C1;fill-rule:nonzero;"/>
        </g>
        <g transform="matrix(1.83873,0,0,1.83873,1003.98,522.316)">
            <path d="M97.048,252.194C95.568,251.497 94.181,250.604 92.732,249.838C88.577,247.64 84.292,245.655 80.308,243.182C78.719,242.195 77.447,240.299 76.659,238.536C75.945,236.94 75.883,234.962 75.88,233.152C75.84,197.865 75.849,162.578 75.852,127.291C75.853,124.018 75.612,111.978 78.046,105.393C79.252,102.131 82.923,100.244 86.024,98.785C89.748,97.032 93.481,95.29 97.28,93.713C98.997,93 100.888,92.714 102.69,92.196C103.617,91.929 104.516,91.564 105.437,91.273C105.712,91.186 106.02,91.201 106.314,91.168C106.16,91.494 106.021,91.827 105.851,92.143C105.159,93.43 105.325,95.704 105.933,97.102C107.504,100.719 112.849,103.037 116.797,102.434C123.537,101.403 131.728,98.672 134.782,93.512C136.082,91.316 136.212,89.167 134.819,86.473C133.925,84.745 132.362,83.687 131.695,83.694C131.495,83.696 131.094,84.221 131.135,84.44C131.405,85.877 131.846,87.284 132.089,88.724C132.546,91.428 130.947,93.534 127.845,95.312C123.994,97.518 119.909,98.847 115.53,98.609C113.721,98.51 111.743,97.554 110.284,96.419C109.352,95.694 109.123,93.956 108.771,92.621C108.282,90.769 107.834,88.885 107.618,86.986C107.185,83.189 109.478,79.919 113.367,78.704C115.915,77.908 118.475,76.952 121.098,76.639C124.185,76.272 127.465,76.205 129.666,79.144C129.992,79.579 129.828,80.36 129.971,80.962C130.114,81.562 130.202,82.342 130.611,82.653C130.88,82.857 131.673,82.366 132.234,82.195C134.243,81.582 136.251,80.967 138.264,80.366C139.746,79.923 141.232,79.494 142.721,79.073C142.895,79.024 143.095,79.065 143.283,79.065C143.19,79.241 143.019,79.416 143.015,79.594C142.957,82.046 142.335,84.688 143.046,86.898C143.766,89.134 146.577,89.642 149.312,89.341C152.899,88.947 155.154,88.505 155.987,84.82C156.777,81.33 157.648,77.811 158.993,74.512C159.693,72.796 161.543,71.571 162.783,70.049C164.361,68.117 166.699,68.528 168.724,67.978C170.995,67.362 173.27,66.761 175.55,66.182C176.432,65.958 177.334,65.813 178.226,65.634C180.394,65.198 182.631,64.971 184.712,64.277C187.605,63.312 191.057,63.522 192.976,60.319C195.008,56.927 194.15,52.971 190.899,50.875C188.299,49.2 185.753,49.542 183.092,50.6C182.371,50.886 181.526,50.844 180.75,51.009C179.413,51.294 178.09,51.635 176.754,51.92C176.549,51.964 176.204,51.903 176.112,51.766C176.017,51.625 176.085,51.283 176.201,51.107C177.842,48.61 179.345,46 181.202,43.674C183.155,41.228 185.649,39.038 189.002,39.504C191.291,39.823 193.491,41.039 195.638,42.05C199.438,43.839 203.168,45.779 206.928,47.657C207.764,48.075 208.614,48.47 209.423,48.936C209.671,49.078 209.999,49.598 209.958,49.644C209.595,50.044 209.135,50.353 208.745,50.731C207.115,52.31 205.236,53.715 203.938,55.533C201.605,58.801 199.583,62.296 197.514,65.745C196.386,67.624 195.557,69.691 194.362,71.522C191.871,75.338 190.069,79.618 185.802,82.158C182.515,84.115 179.034,85.232 175.425,86.172C172.223,87.006 169.016,87.817 165.807,88.622C163.537,89.192 161.233,89.641 158.993,90.31C155.629,91.315 152.309,92.467 148.968,93.55C146.868,94.231 144.736,94.825 142.669,95.597C140.204,96.516 137.804,97.609 135.357,98.579C133.337,99.381 131.237,100 129.264,100.901C126.365,102.227 123.538,103.713 120.699,105.168C118.603,106.242 116.407,107.187 114.491,108.527C111.712,110.473 108.956,112.529 106.536,114.892C103.649,117.711 101.754,121.124 100.689,125.194C99.466,129.869 99.666,134.519 99.661,139.196C99.626,175.614 99.62,212.034 99.717,248.452C99.722,250.266 100.766,252.078 101.326,253.89C101.326,253.89 98.432,252.846 97.048,252.194ZM117.931,79.05C122.808,77.778 127.152,78.225 127.627,80.046C128.102,81.868 124.529,84.379 119.652,85.65C114.776,86.922 110.431,86.475 109.956,84.654C109.481,82.832 113.055,80.321 117.931,79.05Z" style="fill:#0079C1;"/>
        </g>
        <g transform="matrix(1,0,0,1,1346.73,681.444)">
            <path d="M0,-59.597C4.403,-59.665 7.529,-56.42 6.16,-53.686C4.888,-51.144 2.195,-50.41 -0.499,-49.806C-4.956,-48.807 -9.35,-47.528 -13.788,-46.435C-15.421,-46.032 -17.106,-45.839 -18.762,-45.523C-24.522,-44.422 -30.311,-43.444 -36.031,-42.16C-41.546,-40.922 -47.012,-39.445 -52.439,-37.865C-53.346,-37.601 -54.326,-36.393 -54.622,-35.423C-56.291,-29.935 -57.68,-24.362 -59.326,-18.866C-60.899,-13.61 -61.871,-10.954 -63.664,-5.768C-64.794,-2.502 -66.642,-1.903 -70.238,-1.784C-72.017,-1.338 -74.475,-3.951 -72.522,-7.139C-71.113,-9.436 -71.124,-12.576 -70.358,-15.3C-69.084,-19.828 -67.674,-24.319 -66.363,-28.837C-65.405,-32.139 -64.277,-35.416 -63.646,-38.784C-62.698,-43.85 -59.159,-46.799 -54.128,-47.622C-48.119,-48.605 -42.259,-50.481 -36.301,-51.82C-32.814,-52.604 -29.232,-52.969 -25.744,-53.751C-21.15,-54.782 -16.613,-56.065 -12.037,-57.179C-10.622,-57.524 -9.151,-57.625 -7.722,-57.92C-4.901,-58.501 -2.092,-59.14 0,-59.597" style="fill:#0079C1;fill-rule:nonzero;"/>
        </g>
        <g transform="matrix(-0.887026,0.46172,0.46172,0.887026,1191.1,989.635)">
            <path d="M0.492,-0.803C0.402,-0.48 0.312,-0.157 0.221,0.167C0.316,0.073 0.48,-0.013 0.492,-0.117C0.52,-0.351 0.473,-0.595 0.455,-0.838C0.454,-0.842 0.492,-0.803 0.492,-0.803" style="fill:#0079C1;fill-rule:nonzero;"/>
        </g>
    </g>
</svg>
