<?xml version="1.0" encoding="UTF-8" standalone="no"?>
<!DOCTYPE svg PUBLIC "-//W3C//DTD SVG 1.1//EN" "http://www.w3.org/Graphics/SVG/1.1/DTD/svg11.dtd">
<svg width="100%" height="100%" viewBox="0 0 300 300" version="1.1" xmlns="http://www.w3.org/2000/svg" xmlns:xlink="http://www.w3.org/1999/xlink" xml:space="preserve" xmlns:serif="http://www.serif.com/" style="fill-rule:evenodd;clip-rule:evenodd;stroke-linejoin:round;stroke-miterlimit:2;">
    <g transform="matrix(0.5,0,0,0.5,-904.301,-68.7142)">
        <g transform="matrix(1.15321,0,0,1.15321,2195.45,435.768)">
            <path d="M0,3.273C-0.017,8.602 1.504,13.568 4.445,17.788C10.308,26.2 20.42,26.984 27.442,19.572C34.994,11.601 35.332,-3.88 28.138,-12.228C22.378,-18.913 14.848,-20.045 8.137,-14.926C2.199,-10.397 0.218,-3.91 0,3.273M111.672,1.435C111.568,33.786 106.224,65.133 93.516,95.031C85.567,113.731 75.098,130.823 60.419,145.062C48.126,156.985 34.012,165.708 16.936,169.048C0.42,172.278 -15.226,169.643 -30.093,162.054C-46.758,153.548 -59.472,140.646 -69.967,125.424C-84.846,103.845 -93.86,79.811 -99.306,54.324C-104.479,30.114 -105.865,5.635 -103.971,-19.003C-101.66,-49.068 -94.603,-77.918 -80.715,-104.859C-71.721,-122.306 -60.304,-137.892 -44.692,-150.081C-28.941,-162.377 -11.266,-169.005 8.934,-167.543C22.771,-166.542 35.269,-161.566 46.636,-153.735C64.584,-141.371 77.346,-124.575 87.318,-105.494C98.503,-84.09 105.224,-61.254 108.803,-37.426C110.738,-24.54 111.701,-11.594 111.672,1.435" style="fill:#0079C1;fill-rule:nonzero;"/>
        </g>
        <g transform="matrix(1.15321,0,0,1.15321,2073.65,629.639)">
            <path d="M-9.23,-335.776C-22.997,-321.258 -32.927,-304.327 -40.711,-286.038C-48.559,-267.599 -53.825,-248.397 -57.44,-228.724C-62.3,-202.274 -64.561,-175.611 -63.102,-148.732C-61.204,-113.768 -54.705,-79.76 -40.856,-47.406C-33.731,-30.761 -24.626,-15.328 -12.389,-1.865C-11.977,-1.412 -11.636,-0.893 -10.95,0C-17.544,-1.586 -23.635,-3.224 -29.802,-4.493C-38.098,-6.2 -44.734,-10.929 -51.151,-15.962C-67.645,-28.9 -78.82,-45.884 -87.406,-64.715C-96.334,-84.297 -101.707,-104.917 -105.149,-126.111C-108.147,-144.58 -109.256,-163.163 -108.299,-181.811C-106.671,-213.568 -101.124,-244.571 -88.856,-274.099C-81.337,-292.197 -71.346,-308.733 -57.119,-322.446C-48.238,-331.006 -38.188,-337.879 -26.675,-342.34C-23.588,-343.536 -20.013,-343.517 -16.647,-343.933C-11.536,-344.566 -6.412,-345.1 -1.291,-345.653" style="fill:#0079C1;fill-rule:nonzero;"/>
        </g>
        <g transform="matrix(1.15321,0,0,1.15321,2185.64,655.86)">
            <path d="M0,-378.827C-28.205,-372.199 -49.938,-355.972 -67.691,-333.897C-86.375,-310.665 -97.618,-283.922 -104.101,-255.017C-109.59,-230.551 -110.674,-205.748 -109.944,-180.786C-109.282,-158.151 -107.028,-135.719 -101.714,-113.67C-96.078,-90.285 -87.178,-68.328 -72.935,-48.737C-61.494,-33.001 -47.279,-20.275 -30.873,-9.959C-25.393,-6.513 -19.666,-3.459 -14.07,0.043C-14.754,-0.101 -15.441,-0.226 -16.12,-0.39C-34.118,-4.745 -52.112,-9.121 -70.116,-13.451C-75.359,-14.711 -79.558,-17.868 -83.769,-20.928C-96.75,-30.366 -106.631,-42.565 -114.695,-56.311C-127.383,-77.937 -134.872,-101.448 -139.837,-125.875C-145.188,-152.198 -147.18,-178.762 -145.484,-205.57C-143.478,-237.27 -138.11,-268.311 -126.471,-298.027C-118.982,-317.145 -109.091,-334.824 -94.629,-349.67C-85.729,-358.806 -75.595,-366.272 -63.775,-371.045C-59.558,-372.747 -54.7,-373.028 -50.089,-373.555C-33.871,-375.407 -17.633,-377.085 -1.401,-378.821C-0.939,-378.87 -0.467,-378.827 0,-378.827" style="fill:#0079C1;fill-rule:nonzero;"/>
        </g>
        <g transform="matrix(1.15321,0,0,1.15321,1999.7,612.494)">
            <path d="M0,-321.737C-5.52,-315.466 -11.379,-309.426 -16.53,-302.833C-28.297,-287.771 -36.509,-270.75 -42.817,-252.786C-48.549,-236.461 -52.511,-219.688 -55.163,-202.601C-58.15,-183.359 -59.711,-163.995 -58.873,-144.538C-57.259,-107.061 -50.013,-70.852 -33.243,-36.972C-26.813,-23.982 -18.862,-11.984 -8.861,-1.417C-8.541,-1.078 -8.25,-0.712 -8.132,0.055C-10.977,-0.935 -13.856,-1.837 -16.663,-2.927C-47.272,-14.818 -69.056,-36.158 -83.252,-65.486C-92.524,-84.639 -97.546,-104.999 -100.032,-126.067C-101.972,-142.511 -102.415,-158.998 -100.826,-175.448C-96.71,-218.053 -82.012,-256.245 -52.452,-287.909C-38.392,-302.969 -21.773,-314.35 -2.177,-321.126C-1.506,-321.358 -0.824,-321.563 -0.14,-321.755C-0.007,-321.792 0.161,-321.706 0,-321.737" style="fill:#0079C1;fill-rule:nonzero;"/>
        </g>
    </g>
</svg>
