<?xml version="1.0" encoding="UTF-8" standalone="no"?>
<!DOCTYPE svg PUBLIC "-//W3C//DTD SVG 1.1//EN" "http://www.w3.org/Graphics/SVG/1.1/DTD/svg11.dtd">
<svg width="100%" height="100%" viewBox="0 0 300 300" version="1.1" xmlns="http://www.w3.org/2000/svg" xmlns:xlink="http://www.w3.org/1999/xlink" xml:space="preserve" xmlns:serif="http://www.serif.com/" style="fill-rule:evenodd;clip-rule:evenodd;stroke-linejoin:round;stroke-miterlimit:2;">
    <g transform="matrix(0.45469,0,0,0.45469,-1572.62,-921.969)">
        <g transform="matrix(1,0,0,1,3746.46,2585.01)">
            <path d="M61.864,-98.08L61.864,-94.914C61.864,-70.645 61.284,-46.357 62.093,-22.115C62.543,-8.629 56.721,-0.127 45.265,4.801C14.826,17.894 -15.796,17.914 -46.04,4.127C-53.838,0.573 -60.303,-4.964 -61.286,-14.486C-61.506,-16.616 -61.377,-18.785 -61.377,-20.936C-61.38,-104.528 -61.325,-188.121 -61.443,-271.714C-61.459,-283.234 -60.994,-294.543 -56.022,-305.188C-49.45,-319.261 -38.98,-329.384 -24.795,-335.591C-22.646,-336.531 -22.02,-337.616 -22.03,-339.863C-22.116,-360.356 -22.02,-380.851 -22.135,-401.344C-22.159,-405.51 -20.604,-408.523 -16.975,-410.253C-5.49,-415.727 6.078,-415.728 17.543,-410.19C21.037,-408.501 22.606,-405.592 22.585,-401.544C22.481,-380.944 22.57,-360.342 22.482,-339.74C22.473,-337.603 23.091,-336.6 25.069,-335.676C49.888,-324.076 61.934,-304.35 61.952,-277.102C61.96,-265.346 62.186,-253.579 61.755,-241.837C61.498,-234.851 59.478,-228.198 52.988,-224.111C49.906,-222.169 46.764,-220.224 43.426,-218.804C31.585,-213.766 19.1,-211.702 6.297,-211.381C-0.462,-211.211 -2.991,-209.767 -2.981,-205.915C-2.971,-202.013 -0.48,-200.775 6.355,-200.931C22.36,-201.296 37.803,-204.138 52.231,-211.337C55.387,-212.911 58.285,-215.003 61.864,-217.203L61.864,-213.685C61.864,-199.771 61.535,-185.847 61.978,-171.947C62.283,-162.413 58.087,-155.888 50.53,-150.991C39.899,-144.103 27.979,-140.71 15.563,-139.683C5.952,-138.888 -3.784,-139.111 -13.44,-139.5C-21.823,-139.838 -25.32,-137.155 -25.36,-128.736C-25.428,-114.606 -25.392,-100.476 -25.379,-86.346C-25.37,-77.722 -23.053,-74.934 -14.514,-73.97C5.156,-71.749 24.42,-73.199 42.8,-81.19C50.859,-84.694 57.941,-89.429 61.864,-98.08M13.994,-401.266C14.715,-401.803 15.838,-402.862 15.939,-403.792C16.015,-404.489 14.919,-405.704 14.081,-406.048C4.904,-409.826 -4.348,-409.838 -13.528,-406.073C-14.422,-405.706 -15.381,-404.46 -15.481,-403.532C-15.556,-402.835 -14.281,-401.828 -13.617,-401.295C-9.294,-397.823 9.3,-397.768 13.994,-401.266Z" style="fill:#0079C1;fill-rule:nonzero;"/>
        </g>
        <g transform="matrix(1,0,0,1,3830.4,2385.01)">
            <path d="M61.498,-72.491C61.498,-55.222 61.748,-38.628 61.384,-22.048C61.221,-14.611 56.04,-9.797 50.186,-5.977C39.673,0.883 27.827,3.975 15.545,5.35C9.046,6.078 2.448,5.909 -4.101,6.228C-6.107,6.326 -6.649,5.533 -6.614,3.6C-6.505,-2.437 -6.181,-70.588 -7.067,-86.281C-8.356,-109.115 -19.123,-127.218 -37.181,-141.074C-37.95,-141.664 -38.656,-142.47 -39.53,-142.768C-45.916,-144.946 -46.386,-149.814 -45.982,-155.562C-45.575,-161.357 -46.068,-167.211 -45.788,-173.021C-45.701,-174.826 -44.875,-177.251 -43.537,-178.227C-37.483,-182.64 -31.073,-186.561 -24.925,-190.85C-23.784,-191.646 -22.555,-193.312 -22.547,-194.585C-22.402,-215.181 -22.397,-235.778 -22.496,-256.375C-22.516,-260.369 -21.096,-263.39 -17.603,-265.109C-6.059,-270.789 5.608,-270.831 17.198,-265.248C20.674,-263.573 22.267,-260.743 22.239,-256.641C22.101,-236.045 22.208,-215.448 22.126,-194.851C22.118,-192.73 22.708,-191.683 24.697,-190.75C49.038,-179.327 61.466,-160.186 61.57,-133.204C61.611,-122.528 61.516,-111.852 61.568,-101.177C61.647,-84.826 56.159,-79.212 42.381,-73.499C30.696,-68.653 18.425,-66.696 5.843,-66.378C4.339,-66.34 2.814,-66.322 1.34,-66.06C-1.741,-65.514 -3.483,-63.662 -3.197,-60.438C-2.906,-57.161 -0.682,-55.606 2.335,-55.792C9.742,-56.251 17.194,-56.596 24.512,-57.733C37.69,-59.78 50.233,-63.774 61.498,-72.491M-13.754,-261.093C-14.426,-260.428 -15.852,-259.484 -15.841,-258.651C-15.83,-257.802 -14.66,-256.57 -13.722,-256.192C-4.648,-252.541 4.5,-252.532 13.573,-256.194C14.483,-256.561 15.594,-257.834 15.587,-258.678C15.579,-259.525 14.241,-260.505 13.536,-261.117C8.917,-265.127 -9.476,-265.33 -13.754,-261.093Z" style="fill:#0079C1;fill-rule:nonzero;"/>
        </g>
        <g transform="matrix(1,0,0,1,3891.96,2544.01)">
            <path d="M0,-112.363L0,-79.434C0,-64.116 -0.375,-48.786 0.135,-33.486C0.467,-23.523 -3.874,-16.823 -11.813,-11.813C-22.043,-5.357 -33.443,-2.256 -45.295,-0.899C-52.01,-0.13 -58.82,-0.106 -65.591,-0.012C-66.426,0 -68.021,-1.625 -68.023,-2.495C-68.106,-30.217 -68.036,-57.938 -67.981,-85.66C-67.98,-86.074 -67.881,-86.488 -67.894,-86.384C-58.49,-87.218 -49.261,-87.642 -40.159,-88.95C-29.989,-90.411 -20.255,-93.593 -11.522,-99.244C-6.492,-102.499 -2.411,-106.646 0,-112.363" style="fill:#0079C1;fill-rule:nonzero;"/>
        </g>
    </g>
</svg>
