<?xml version="1.0" encoding="UTF-8" standalone="no"?>
<!DOCTYPE svg PUBLIC "-//W3C//DTD SVG 1.1//EN" "http://www.w3.org/Graphics/SVG/1.1/DTD/svg11.dtd">
<svg width="100%" height="100%" viewBox="0 0 300 300" version="1.1" xmlns="http://www.w3.org/2000/svg" xmlns:xlink="http://www.w3.org/1999/xlink" xml:space="preserve" xmlns:serif="http://www.serif.com/" style="fill-rule:evenodd;clip-rule:evenodd;stroke-linejoin:round;stroke-miterlimit:2;">
    <g transform="matrix(0.631255,0,0,0.631255,-417.665,-272.689)">
        <g transform="matrix(0.95858,0.358059,-1.78959,0.665693,1034.06,-79.877)">
            <path d="M933,484.1C933,478.526 927.472,474 920.664,474L757.336,474C750.528,474 745,478.526 745,484.1L745,564.9C745,570.474 750.528,575 757.336,575L933,575L933,484.1Z" style="fill:#0079C1;"/>
        </g>
        <g transform="matrix(1.01919,0.373802,0,1.04678,-14.846,-308.958)">
            <path d="M892,642L729.323,642L729.323,763.266C729.323,770.702 734.788,776.74 741.521,776.74L879.802,776.74C886.534,776.74 892,770.702 892,763.266L892,642Z" style="fill:#0079C1;"/>
        </g>
        <g transform="matrix(-1.01919,0.373802,0,1.05518,1813.37,-315.479)">
            <path d="M892,642L729.323,642L729.323,763.266C729.323,770.702 734.832,776.74 741.618,776.74L879.704,776.74C886.49,776.74 892,770.702 892,763.266L892,642Z" style="fill:#0079C1;"/>
        </g>
        <g transform="matrix(1.01282,0.375727,8.58065e-19,0.561644,-9.16365,-15.2748)">
            <path d="M892,578L723.896,578C718.986,578 715,586.178 715,596.25L715,632.75C715,642.822 718.986,651 723.896,651L892,651L892,578Z" style="fill:#0079C1;"/>
        </g>
        <g transform="matrix(-1.01282,0.375727,0,0.561644,1807.69,-15.2748)">
            <path d="M892,578L723.896,578C718.986,578 715,586.178 715,596.25L715,632.75C715,642.822 718.986,651 723.896,651L892,651L892,578Z" style="fill:#0079C1;"/>
        </g>
    </g>
</svg>
