<?xml version="1.0" encoding="UTF-8" standalone="no"?>
<!DOCTYPE svg PUBLIC "-//W3C//DTD SVG 1.1//EN" "http://www.w3.org/Graphics/SVG/1.1/DTD/svg11.dtd">
<svg width="100%" height="100%" viewBox="0 0 300 300" version="1.1" xmlns="http://www.w3.org/2000/svg" xmlns:xlink="http://www.w3.org/1999/xlink" xml:space="preserve" xmlns:serif="http://www.serif.com/" style="fill-rule:evenodd;clip-rule:evenodd;stroke-linejoin:round;stroke-miterlimit:2;">
    <g transform="matrix(0.671851,0,0,0.763425,78.1385,219.668)">
        <path d="M0,-188.957C0.068,-188.732 0.136,-188.507 0.204,-188.281C0.609,-188.08 1.005,-187.853 1.422,-187.679C15.704,-181.754 30.626,-177.953 45.852,-175.838C59.719,-173.912 73.738,-172.583 87.726,-172.138C111.193,-171.39 134.683,-172.025 157.989,-175.259C168.322,-176.693 178.604,-178.65 188.8,-180.869C197.27,-182.713 205.518,-185.468 213.812,-189.485C211.906,-190.413 210.412,-191.446 208.76,-191.894C199.883,-194.298 191.049,-196.972 182.042,-198.756C171.627,-200.818 161.082,-202.347 150.532,-203.569C138.735,-204.934 126.887,-206.135 115.029,-206.615C97.5,-207.324 79.988,-206.469 62.533,-204.47C47.144,-202.707 31.896,-200.247 17.113,-195.541C11.299,-193.691 5.698,-191.172 0,-188.957M81.336,-100.891C109.617,-94.967 113.286,-89.86 129.754,-86.039C141.732,-83.259 153.819,-80.88 165.94,-78.798C181.382,-76.145 196.986,-74.964 212.669,-74.993C212.889,-74.994 213.11,-74.89 213.6,-74.769C212.849,-70.95 212.119,-67.137 211.348,-63.334C208.491,-49.24 205.62,-35.15 202.756,-21.058C201.78,-16.254 201.074,-11.376 199.777,-6.66C198.056,-0.404 194.179,4.629 189.572,9.09C179.187,19.146 166.572,25.214 152.919,29.338C131.495,35.81 109.626,37.264 87.433,35.016C70.838,33.334 54.81,29.617 39.898,21.899C31.261,17.429 23.393,11.948 17.246,4.241C12.921,-1.181 11.077,-7.511 9.802,-14.186C6.255,-32.756 2.514,-51.289 -1.139,-69.839C-4.926,-89.068 -8.685,-108.303 -12.484,-127.53C-15.955,-145.097 -19.464,-162.656 -22.954,-180.219C-23.627,-183.603 -24.442,-186.966 -24.929,-190.376C-25.681,-195.629 -23.697,-200.077 -19.238,-202.627C-13.939,-205.658 -8.339,-208.361 -2.57,-210.331C11.495,-215.133 26.069,-217.905 40.73,-220.273C66.349,-224.412 92.132,-226.221 118.038,-225.153C132.059,-224.574 146.059,-223.107 160.024,-221.619C176.166,-219.898 192.097,-216.863 207.7,-212.311C215.899,-209.919 223.958,-207.17 231.261,-202.527C236.406,-199.257 237.969,-194.578 236.914,-188.962C234.859,-178.031 232.594,-167.138 230.347,-156.243C227.414,-142.024 224.414,-127.818 221.394,-113.369C231.338,-113.532 240.758,-114.825 248.34,-121.887C253.032,-126.257 253.011,-131.027 248.127,-135.123C246.032,-136.881 231.639,-142.257 229.227,-143.611C227.832,-144.394 226.324,-144.976 224.769,-145.693C226.548,-152.42 228.295,-159.027 230.191,-166.196C234.56,-163.735 245.781,-160.114 254.739,-154.814C260.153,-151.611 264.689,-147.321 268.818,-142.538C277.879,-132.042 275.552,-120.573 268.356,-111.626C262.135,-103.891 253.585,-99.678 244.324,-96.821C230.851,-92.665 216.992,-91.873 203.057,-93.02C191.22,-93.995 179.341,-95.026 167.643,-96.994C150.986,-99.795 134.415,-103.193 117.926,-106.871C105.196,-109.71 98.442,-126.289 81.636,-128.013C62.832,-129.943 63.277,-104.674 81.336,-100.891Z" style="fill:#0079C1;fill-rule:nonzero;"/>
    </g>
</svg>
