<?xml version="1.0" encoding="UTF-8" standalone="no"?>
<!DOCTYPE svg PUBLIC "-//W3C//DTD SVG 1.1//EN" "http://www.w3.org/Graphics/SVG/1.1/DTD/svg11.dtd">
<svg width="100%" height="100%" viewBox="0 0 300 300" version="1.1" xmlns="http://www.w3.org/2000/svg" xmlns:xlink="http://www.w3.org/1999/xlink" xml:space="preserve" xmlns:serif="http://www.serif.com/" style="fill-rule:evenodd;clip-rule:evenodd;stroke-linejoin:round;stroke-miterlimit:2;">
    <g transform="matrix(0.377596,0,0,0.334688,-1375.51,-321.186)">
        <g transform="matrix(1,0,0,1,3860.41,1603.57)">
            <path d="M0,-233.389C5.661,-228.722 11.229,-223.937 16.999,-219.41C34.254,-205.87 54.328,-198.332 75.176,-192.603C101.857,-185.271 129.138,-181.858 156.724,-180.467C186.245,-178.978 215.656,-180.171 244.867,-184.56C274.842,-189.064 304.109,-196.143 330.578,-211.773C340.393,-217.569 349.035,-224.792 356.292,-235.307L356.292,-230.585C356.292,-180.502 355.887,-130.414 356.486,-80.339C356.735,-59.582 348.051,-44.7 331.46,-33.551C312.03,-20.494 290.179,-13.486 267.584,-8.563C229.323,-0.225 190.608,1.918 151.574,-0.456C119.616,-2.4 88.164,-7.069 57.98,-18.16C40.953,-24.416 24.733,-32.255 12.593,-46.44C6.681,-53.349 2.881,-61.235 2.41,-70.484C2.051,-77.526 1.43,-84.568 1.416,-91.61C1.327,-138.292 1.37,-184.974 1.37,-231.655L1.37,-235.04C0.913,-234.489 0.457,-233.939 0,-233.389" style="fill:#0079C1;fill-rule:nonzero;"/>
        </g>
        <g transform="matrix(1,0,0,1,3994.04,1346.35)">
            <path d="M0,-207.916C13.948,-188.2 76.129,-186.606 91.178,-208.093C91.734,-204.795 92.147,-201.901 92.718,-199.038C96.226,-181.433 106.884,-169.267 122.775,-162.073C136.488,-155.865 150.765,-150.886 164.857,-145.531C181.925,-139.044 197.393,-130.024 210.166,-116.855C218.895,-107.855 222.905,-97.079 222.829,-84.305C222.746,-70.504 221.554,-57.112 211.134,-47.092C204.137,-40.364 196.3,-34.104 187.871,-29.35C164.99,-16.445 139.711,-10.536 114.001,-6.406C79.71,-0.898 45.206,0.177 10.631,-2.534C-22.969,-5.169 -56.042,-10.643 -87.129,-24.506C-102.278,-31.263 -117.248,-39.183 -125.286,-54.35C-137.566,-77.524 -136.392,-107.004 -109.878,-125.987C-92.811,-138.206 -73.586,-145.299 -54.169,-152.449C-43.1,-156.526 -32.243,-161.682 -22.147,-167.772C-8.087,-176.252 -1.509,-189.843 -0.244,-206.069C-0.208,-206.525 -0.126,-206.978 0,-207.916" style="fill:#0079C1;fill-rule:nonzero;"/>
        </g>
        <g transform="matrix(1,0,0,1,3861.81,1754.3)">
            <path d="M0,-126.104C6.575,-120.141 12.844,-113.256 20.251,-107.967C40.168,-93.748 63.126,-86.56 86.713,-81.263C127.658,-72.069 169.151,-70.07 210.879,-72.882C241.545,-74.948 271.805,-79.739 300.824,-90.368C319.477,-97.201 337.167,-105.799 350.468,-121.315C351.746,-122.805 352.911,-124.393 354.405,-126.285C354.578,-125.898 354.778,-125.658 354.778,-125.418C354.8,-108.606 355.078,-91.788 354.728,-74.983C354.435,-60.871 346.491,-50.559 336.238,-41.918C319.763,-28.034 300.282,-19.936 279.946,-13.73C254.837,-6.066 229.086,-1.56 202.891,-0.698C183.011,-0.043 162.997,0.181 143.191,-1.331C104.174,-4.311 66.187,-12.073 31.932,-32.384C19.446,-39.787 8.275,-48.856 2.722,-62.939C1.226,-66.733 0.186,-70.967 0.12,-75.018C-0.162,-92.298 0,-109.584 0,-126.104" style="fill:#0079C1;fill-rule:nonzero;"/>
        </g>
        <g transform="matrix(1,0,0,1,3857.15,1402.9)">
            <path d="M0,-108.817C0.42,-107.75 0.737,-107.194 0.86,-106.598C4.368,-89.551 15.331,-78.251 29.563,-69.555C50.281,-56.896 73.093,-49.847 96.667,-45.013C133.782,-37.403 171.281,-35.379 209.07,-37.466C237.036,-39.01 264.646,-42.76 291.547,-50.711C312.196,-56.815 332.064,-64.701 348.438,-79.341C356.367,-86.43 362.887,-94.499 364.783,-105.423C364.927,-106.249 365.262,-107.044 365.541,-107.842C365.594,-107.996 365.8,-108.097 366.204,-108.471C371.992,-99.179 373.966,-89.341 371.247,-78.787C367.68,-64.939 358.493,-54.805 348.483,-45.297C330.28,-28.008 307.819,-18.996 284.115,-12.586C248.87,-3.055 212.866,0 176.476,-0.418C145.704,-0.772 115.261,-3.899 85.381,-11.443C65.55,-16.45 46.128,-22.868 29.45,-35.086C15.495,-45.31 3.164,-57.395 -3.61,-73.825C-8.54,-85.781 -6.964,-97.375 0,-108.817" style="fill:#0079C1;fill-rule:nonzero;"/>
        </g>
        <g transform="matrix(1,0,0,1,3857.27,1662.02)">
            <path d="M0,-110.203C0.555,-108.405 1.012,-107.373 1.185,-106.294C3.592,-91.277 12.862,-81.104 24.824,-72.883C42.333,-60.849 61.983,-53.772 82.354,-48.529C106.832,-42.229 131.776,-38.982 156.996,-37.653C181.761,-36.348 206.5,-36.694 231.141,-39.449C265.037,-43.239 298.273,-49.707 328.79,-65.99C340.591,-72.287 351.315,-80.052 358.586,-91.508C361.301,-95.786 362.592,-100.974 364.471,-105.771C364.939,-106.965 365.171,-108.251 365.725,-110.273C370.238,-103.135 372.449,-96.151 372.247,-88.447C371.853,-73.385 363.238,-62.529 353.887,-51.871C334.417,-29.678 308.627,-19.224 281.041,-12.032C256.296,-5.581 231.064,-2.439 205.553,-1.173C180.492,0.07 155.492,-0.533 130.59,-3.54C98.799,-7.378 67.584,-13.614 39.102,-29.156C19.786,-39.696 5.465,-55.372 -3.692,-75.258C-9.045,-86.883 -7.1,-98.638 0,-110.203" style="fill:#0079C1;fill-rule:nonzero;"/>
        </g>
        <g transform="matrix(1,0,0,1,4039.24,1105.43)">
            <path d="M0,8.616C11.079,7.941 22.205,7.579 31.947,1.439C38.239,-2.528 38.105,-7.136 31.865,-11.285C30.927,-11.908 29.935,-12.477 28.906,-12.929C16.337,-18.459 3.047,-19.236 -10.215,-17.439C-17.702,-16.424 -25.25,-14.014 -32.12,-10.83C-38.449,-7.897 -38.122,-2.488 -32.1,1.344C-22.285,7.588 -11.069,7.931 0,8.616M43.309,4.55L43.309,4.833C43.309,20.141 41.324,23.68 26.458,28.222C5.916,34.498 -14.616,34.352 -34.414,24.872C-40.505,21.956 -44.16,17.342 -43.417,10.037C-43.104,6.953 -43.031,3.768 -43.426,0.703C-44.591,-8.342 -40.289,-13.93 -32.388,-17.151C-10.969,-25.882 10.569,-25.813 32.024,-17.34C40.119,-14.143 44.799,-8.471 43.335,0.871C43.147,2.069 43.309,3.322 43.309,4.55" style="fill:#0079C1;fill-rule:nonzero;"/>
        </g>
    </g>
</svg>
