<?xml version="1.0" encoding="UTF-8" standalone="no"?>
<!DOCTYPE svg PUBLIC "-//W3C//DTD SVG 1.1//EN" "http://www.w3.org/Graphics/SVG/1.1/DTD/svg11.dtd">
<svg width="100%" height="100%" viewBox="0 0 300 300" version="1.1" xmlns="http://www.w3.org/2000/svg" xmlns:xlink="http://www.w3.org/1999/xlink" xml:space="preserve" xmlns:serif="http://www.serif.com/" style="fill-rule:evenodd;clip-rule:evenodd;stroke-linejoin:round;stroke-miterlimit:2;">
    <g transform="matrix(0.953457,0,0,0.953457,-1297.81,-39.5157)">
        <g transform="matrix(0.694115,0,0,0.694115,1530.92,223.997)">
            <path d="M0,97.472C-4.76,97.444 -9.235,96.44 -13.578,94.415C-71.959,67.189 -130.366,40.02 -188.754,12.809C-190.064,12.198 -191.31,11.366 -192.429,10.447C-194.541,8.712 -194.257,5.797 -192.548,3.858C-191.483,2.65 -190.141,1.684 -188.914,0.619C-188.2,0 -187.499,0.057 -186.633,0.461C-158.087,13.777 -129.527,27.064 -100.971,40.357C-72.486,53.618 -44.006,66.888 -15.516,80.136C-10.934,82.267 -6.055,83.037 -1.032,83.104C7.926,83.224 16.296,81.021 24.397,77.25C66.529,57.637 108.707,38.124 150.859,18.552C151.733,18.146 152.442,18.078 153.283,18.56C155.002,19.545 156.857,20.348 157.707,22.341C158.566,24.357 157.831,26.06 156.582,27.602C154.652,29.983 152.013,31.387 149.3,32.646C130.101,41.561 110.896,50.465 91.691,59.367C67.378,70.636 43.062,81.897 18.75,93.169C13.921,95.408 8.874,96.789 3.559,97.171C2.371,97.256 1.186,97.371 0,97.472" style="fill:#0079C1;fill-rule:nonzero;"/>
        </g>
        <g transform="matrix(0.694115,0,0,0.694115,1532.24,207.97)">
            <path d="M0,97.41C-5.986,97.631 -10.792,96.689 -15.458,94.512C-69.747,69.19 -124.066,43.933 -178.375,18.655C-182.76,16.614 -187.143,14.57 -191.503,12.477C-193.254,11.635 -194.939,10.697 -195.803,8.753C-196.568,7.03 -196.016,5.523 -195.108,4.155C-193.88,2.302 -192.118,0.962 -190.138,-0.016C-189.722,-0.221 -188.988,-0.029 -188.501,0.196C-178.261,4.931 -168.035,9.695 -157.807,14.456C-110.882,36.302 -63.96,58.152 -17.03,79.988C-11.099,82.747 -4.811,83.22 1.625,82.828C10.014,82.316 17.565,79.224 25.068,75.731C65.258,57.021 105.494,38.409 145.711,19.757C146.611,19.34 147.534,18.931 148.344,18.37C149.397,17.64 150.359,17.623 151.4,18.313C152.616,19.12 153.974,19.761 155.047,20.723C157.354,22.791 156.687,25.37 155.17,27.315C153.225,29.807 150.519,31.253 147.737,32.546C120.15,45.365 92.555,58.168 64.96,70.971C48.997,78.377 33.027,85.768 17.067,93.182C11.365,95.831 5.378,97.236 0,97.41" style="fill:#0079C1;fill-rule:nonzero;"/>
        </g>
        <g transform="matrix(0.694115,0,0,0.694115,1530.55,175.978)">
            <path d="M0,120.261C-3.993,120.33 -8.046,119.493 -11.957,117.67C-66.577,92.215 -121.215,66.799 -175.842,41.36C-178.858,39.956 -181.88,38.541 -184.789,36.93C-187.847,35.237 -188.194,31.935 -185.866,29.288C-184.004,27.169 -181.638,25.813 -179.148,24.655C-161.677,16.531 -144.19,8.442 -126.721,0.315C-125.897,-0.069 -125.262,0.05 -124.488,0.41C-82.432,20.004 -40.367,39.581 1.697,59.159C10.232,63.131 18.772,67.094 27.305,71.073C31.756,73.148 36.435,73.603 41.274,73.229C46.474,72.827 51.242,71.119 55.931,68.936C79.733,57.851 103.57,46.84 127.386,35.785C128.091,35.458 128.646,35.41 129.379,35.757C135.544,38.671 141.744,41.509 147.901,44.438C149.099,45.009 150.265,45.755 151.255,46.635C153.354,48.5 152.851,50.998 151.38,52.917C149.502,55.367 146.853,56.758 144.147,58.015C107.726,74.929 71.297,91.828 34.863,108.715C28.522,111.655 22.189,114.621 15.775,117.395C10.862,119.519 5.627,120.265 0,120.261" style="fill:#0079C1;fill-rule:nonzero;"/>
        </g>
        <g transform="matrix(0.694115,0,0,0.694115,1557.03,160.437)">
            <path d="M0,86.956C-2.577,87.057 -5.203,86.45 -7.744,85.266C-56.066,62.757 -104.396,40.266 -152.723,17.77C-157.609,15.495 -162.488,13.203 -167.37,10.917C-167.692,10.766 -168.013,10.607 -168.322,10.43C-171.13,8.822 -171.469,6.651 -168.961,4.575C-167.43,3.308 -165.459,2.59 -163.785,1.476C-161.414,-0.101 -159.329,0.264 -156.796,1.448C-107.93,24.292 -59.012,47.028 -10.113,69.803C-5.497,71.953 -0.669,72.37 4.326,71.973C9.573,71.556 14.349,69.718 19.062,67.524C41.533,57.065 64.031,46.663 86.509,36.217C87.265,35.865 87.851,35.821 88.608,36.202C90.483,37.148 92.426,37.956 94.308,38.887C97.728,40.577 98.024,43.276 94.874,45.425C92.926,46.754 90.744,47.769 88.595,48.769C63.175,60.596 37.74,72.388 12.316,84.206C8.471,85.993 4.469,86.998 0,86.956" style="fill:#0079C1;fill-rule:nonzero;"/>
        </g>
        <g transform="matrix(0.694115,0,0,0.694115,1557.84,138.744)">
            <path d="M0,94.604C-2.864,94.656 -5.462,94.121 -7.972,92.952C-55.28,70.913 -102.6,48.898 -149.916,26.874C-156.132,23.98 -162.337,21.062 -168.546,18.154C-168.869,18.003 -169.193,17.852 -169.501,17.675C-172.359,16.037 -172.543,13.561 -169.882,11.549C-168.815,10.741 -167.629,10.067 -166.432,9.458C-164.703,8.578 -162.898,7.847 -161.162,6.98C-160.454,6.627 -159.891,6.633 -159.168,6.971C-140.416,15.721 -121.639,24.419 -102.898,33.193C-97.927,35.521 -92.757,35.936 -87.41,35.398C-82.513,34.906 -78.036,33.145 -73.616,31.087C-51.58,20.825 -29.516,10.626 -7.472,0.385C-6.659,0.007 -6.01,-0.052 -5.153,0.348C27.719,15.677 60.605,30.975 93.489,46.28C93.812,46.43 94.133,46.591 94.442,46.768C97.318,48.417 97.507,50.875 94.829,52.892C93.697,53.744 92.445,54.48 91.159,55.078C64.664,67.399 38.153,79.688 11.651,91.995C7.912,93.731 4,94.627 0,94.604" style="fill:#0079C1;fill-rule:nonzero;"/>
        </g>
        <g transform="matrix(0.694115,0,0,0.694115,1505.9,157.757)">
            <path d="M0,-82.721C2.715,-82.854 5.329,-82.224 7.863,-81.042C30.821,-70.337 53.791,-59.659 76.755,-48.968C77.365,-48.684 77.96,-48.359 78.53,-48.003C80.436,-46.81 80.865,-44.901 79.289,-43.311C78.059,-42.071 76.549,-40.975 74.967,-40.238C48.198,-27.754 21.408,-15.313 -5.406,-2.926C-10.352,-0.642 -15.589,0.133 -20.996,-0.98C-22.072,-1.202 -23.137,-1.592 -24.137,-2.056C-40.711,-9.745 -57.275,-17.455 -73.838,-25.167C-80.486,-28.263 -87.126,-31.375 -93.769,-34.481C-93.985,-34.582 -94.199,-34.686 -94.409,-34.798C-97.561,-36.486 -97.823,-38.857 -95.005,-41.102C-93.93,-41.958 -92.696,-42.66 -91.446,-43.241C-64.844,-55.603 -38.231,-67.943 -11.613,-80.271C-7.964,-81.961 -4.116,-82.815 0,-82.721" style="fill:#0079C1;fill-rule:nonzero;"/>
        </g>
    </g>
</svg>
