<?xml version="1.0" encoding="UTF-8" standalone="no"?>
<!DOCTYPE svg PUBLIC "-//W3C//DTD SVG 1.1//EN" "http://www.w3.org/Graphics/SVG/1.1/DTD/svg11.dtd">
<svg width="100%" height="100%" viewBox="0 0 300 300" version="1.1" xmlns="http://www.w3.org/2000/svg" xmlns:xlink="http://www.w3.org/1999/xlink" xml:space="preserve" xmlns:serif="http://www.serif.com/" style="fill-rule:evenodd;clip-rule:evenodd;stroke-linejoin:round;stroke-miterlimit:2;">
    <g transform="matrix(0.573354,0,0,0.573354,146.98,54.9898)">
        <path d="M0,331.289C-3.013,329.942 -5.714,328.673 -8.462,327.516C-26.974,319.721 -45.497,311.952 -64.013,304.167C-66.213,303.242 -68.447,302.372 -70.569,301.29C-73.039,300.03 -74.054,297.29 -73.226,294.709C-72.433,292.235 -69.802,290.582 -67.155,291.005C-66.263,291.147 -65.392,291.513 -64.55,291.867C-43.828,300.569 -23.111,309.283 -2.393,317.993C-1.649,318.306 -0.897,318.6 0.075,318.993L0.075,312.407C1.717,311.555 3.192,310.944 4.505,310.084C16.353,302.328 28.174,294.53 40.002,286.743C44.252,283.945 48.516,281.166 52.744,278.336C54.782,276.973 55.617,274.962 55.162,272.589C54.72,270.281 53.198,268.818 50.903,268.262C48.952,267.789 47.326,268.605 45.745,269.647C31.155,279.259 16.555,288.856 1.956,298.454C1.418,298.807 0.855,299.123 0.022,299.627C0.022,294.907 -0.051,290.511 0.06,286.119C0.1,284.494 -0.327,283.685 -1.93,283.014C-39.778,267.171 -77.596,251.256 -115.418,235.35C-119.708,233.546 -124.018,231.784 -128.264,229.88C-130.838,228.726 -131.962,226.348 -131.477,223.695C-131.062,221.428 -129.074,219.453 -126.62,219.382C-125.217,219.342 -123.715,219.798 -122.394,220.353C-82.301,237.177 -42.225,254.042 -2.145,270.898C-1.492,271.172 -0.827,271.416 0.056,271.762L0.056,242.4C1.754,241.506 3.28,240.859 4.642,239.964C47.57,211.744 90.484,183.5 133.397,155.256C134.42,154.583 135.477,153.94 136.41,153.154C138.122,151.712 138.689,149.237 137.916,147.118C137.133,144.971 135.124,143.338 132.838,143.642C131.166,143.865 129.433,144.609 128.006,145.546C85.982,173.133 43.993,200.773 1.997,228.403C1.421,228.781 0.831,229.138 -0.065,229.701C0.334,227.825 -0.485,227.301 -1.71,226.788C-27.918,215.808 -54.106,204.78 -80.298,193.761C-85.265,191.671 -90.248,189.617 -95.19,187.468C-97.611,186.415 -98.863,184.302 -98.704,181.95C-98.548,179.644 -96.966,177.413 -94.657,177.072C-93.121,176.845 -91.327,177.096 -89.885,177.699C-60.617,189.934 -31.384,202.25 -2.143,214.548C-1.492,214.822 -0.828,215.066 0.022,215.4C0.022,210.162 -0.029,205.195 0.057,200.23C0.079,198.963 -0.367,198.43 -1.484,197.963C-62.57,172.43 -123.644,146.867 -184.721,121.313C-185.2,121.112 -185.709,120.981 -186.368,120.763L-186.368,122.816C-186.368,136.503 -186.338,150.191 -186.412,163.877C-186.42,165.395 -185.868,165.967 -184.571,166.511C-142.782,184.041 -101.009,201.61 -59.237,219.178C-58.561,219.463 -57.884,219.767 -57.261,220.149C-55.11,221.465 -54.172,223.937 -54.859,226.356C-55.544,228.766 -57.672,230.446 -60.197,230.277C-61.444,230.193 -62.714,229.77 -63.881,229.28C-100.696,213.824 -137.499,198.34 -174.305,182.862C-178.242,181.207 -182.184,179.561 -186.362,177.811C-186.362,182.945 -186.389,187.831 -186.311,192.716C-186.305,193.121 -185.663,193.678 -185.193,193.886C-182.169,195.224 -179.111,196.484 -176.063,197.768C-170.533,200.098 -164.983,202.382 -159.478,204.772C-156.48,206.073 -155.223,208.834 -156.143,211.663C-157.213,214.955 -160.516,216.327 -164.079,214.852C-170.813,212.064 -177.519,209.212 -184.239,206.393C-184.89,206.12 -185.56,205.896 -186.268,205.633C-186.316,205.991 -186.361,206.172 -186.361,206.354C-186.366,217.34 -186.34,228.327 -186.404,239.313C-186.411,240.637 -185.688,240.917 -184.752,241.31C-155.28,253.689 -125.813,266.082 -96.348,278.479C-94.373,279.31 -92.368,280.093 -90.468,281.072C-88.392,282.142 -87.385,284.347 -87.677,286.628C-87.949,288.747 -89.555,290.876 -91.705,291.119C-93.313,291.301 -95.146,291.01 -96.65,290.381C-125.916,278.143 -155.149,265.824 -184.39,253.527C-184.982,253.278 -185.596,253.082 -186.369,252.8C-186.369,255.992 -186.258,258.939 -186.412,261.873C-186.497,263.489 -185.937,264.186 -184.47,264.801C-125.388,289.55 -66.326,314.346 -7.261,339.134C-4.904,340.123 -2.537,341.088 0.022,342.145C0.022,340.93 0.078,339.952 0.008,338.983C-0.09,337.626 0.041,336.664 1.79,336.481C2.681,336.388 3.529,335.627 4.346,335.091C32.929,316.298 61.507,297.496 90.084,278.694C92.388,277.178 94.73,275.711 96.968,274.102C99.291,272.432 100.008,269.88 99.023,267.454C97.593,263.931 93.714,263 90.099,265.376C60.49,284.84 30.892,304.321 1.269,323.766C0.259,324.429 -0.094,325.152 -0.023,326.313C0.071,327.838 0,329.374 0,331.289M207.652,106.495C207.652,110.535 207.731,114.215 207.582,117.885C207.554,118.577 206.751,119.431 206.082,119.873C191.666,129.414 177.219,138.908 162.777,148.409C143.726,160.943 124.678,173.484 105.615,185.999C103.592,187.327 102.178,188.918 102.287,191.507C102.449,195.368 106.406,197.88 109.947,196.312C110.726,195.967 111.447,195.48 112.162,195.01C143.251,174.562 174.337,154.109 205.425,133.658C206.069,133.235 206.729,132.836 207.653,132.254L207.653,134.58C207.653,143.357 207.6,152.135 207.699,160.91C207.719,162.614 207.112,163.51 205.747,164.406C169.876,187.96 134.034,211.556 98.188,235.147C95.006,237.241 93.964,239.565 94.946,242.326C96.029,245.372 99.299,246.861 102.256,245.608C102.983,245.301 103.657,244.851 104.32,244.415C137.968,222.279 171.612,200.137 205.258,177.999C205.952,177.542 206.665,177.114 207.648,176.499C207.648,180.324 207.715,183.802 207.582,187.273C207.56,187.859 206.771,188.56 206.171,188.957C191.081,198.925 175.968,208.856 160.862,218.799C147.292,227.73 133.722,236.662 120.16,245.605C117.113,247.614 116.149,250.36 117.46,253.114C118.917,256.172 122.499,257.188 125.573,255.298C128.235,253.662 130.811,251.885 133.423,250.166C157.492,234.329 181.561,218.49 205.631,202.653C206.185,202.289 206.756,201.949 207.514,201.477C207.572,202.111 207.647,202.561 207.648,203.01C207.655,210.437 207.694,214.619 207.68,222.045C207.674,224.888 207.247,227.136 203.026,229.862C137.355,272.275 74.936,312.606 9.272,355.03C7.069,356.453 4.814,356.29 2.456,355.293C-10.292,349.906 -23.061,344.568 -35.822,339.211C-88.108,317.262 -140.394,295.314 -192.679,273.363C-196.682,271.682 -197.477,270.473 -197.477,266.116C-197.479,251.815 -197.478,237.514 -197.478,223.213C-197.478,187.126 -197.478,151.04 -197.477,114.953C-197.476,113.79 -197.495,112.624 -197.438,111.462C-197.351,109.675 -196.438,108.318 -194.984,107.368C-184.207,100.328 -173.387,93.353 -162.633,86.278C-107.31,49.879 -51.993,13.469 3.287,-22.997C6.08,-24.84 8.577,-25.164 11.688,-23.861C75.572,2.89 139.483,29.576 203.389,56.275C207.685,58.07 208.554,59.69 207.741,64.227C207.623,64.884 207.657,65.573 207.657,66.246C207.652,74.594 207.623,82.941 207.685,91.288C207.695,92.609 207.293,93.37 206.182,94.096C194.632,101.637 183.125,109.242 171.597,116.814C169.424,118.241 168.124,120.08 168.565,122.797C169.141,126.347 172.748,128.385 176.063,127.012C176.848,126.687 177.569,126.193 178.284,125.724C187.404,119.731 196.516,113.728 205.633,107.731C206.184,107.368 206.758,107.04 207.652,106.495" style="fill:#0079C1;fill-rule:nonzero;"/>
    </g>
</svg>
