<?xml version="1.0" encoding="UTF-8" standalone="no"?>
<!DOCTYPE svg PUBLIC "-//W3C//DTD SVG 1.1//EN" "http://www.w3.org/Graphics/SVG/1.1/DTD/svg11.dtd">
<svg width="100%" height="100%" viewBox="0 0 300 300" version="1.1" xmlns="http://www.w3.org/2000/svg" xmlns:xlink="http://www.w3.org/1999/xlink" xml:space="preserve" xmlns:serif="http://www.serif.com/" style="fill-rule:evenodd;clip-rule:evenodd;stroke-linejoin:round;stroke-miterlimit:2;">
    <g transform="matrix(0.95746,0,0,0.95746,-730.782,-444.701)">
        <g transform="matrix(1.04633,0,0,1.14999,-42.1856,-82.4529)">
            <path d="M939,546.75C939,545.784 938.138,545 937.077,545L901.923,545C900.862,545 900,545.784 900,546.75L900,550.25C900,551.216 900.862,552 901.923,552L937.077,552C938.138,552 939,551.216 939,550.25L939,546.75Z" style="fill:#0079C1;"/>
        </g>
        <path d="M932.891,497.817C909.273,497.548 895.461,501.057 886,509C882.564,511.885 881.395,514.592 884,517L904.5,541.149L935.258,541.092L955.304,517.901C958.456,513.519 958.783,510.299 955.45,508.587L945.99,503.93C943.263,502.675 941.187,503.827 939.732,507.277L930.417,525.906L935.948,505.822C937.519,501.173 937.817,497.498 932.891,497.817Z" style="fill:#0079C1;"/>
        <path d="M851,604.336C834.95,623.866 826.406,645.648 822,668.672C818.965,693.917 825.51,711.499 838,724.325C855.736,738.093 901.218,747.458 922.534,743.557C946.929,742.159 967.191,733.92 982.582,717.619C979.715,726.33 974.162,732.931 966.948,738.227C983.528,738.544 996.728,731.763 1007.1,719.04C1016.71,705.864 1019.11,687.884 1018.47,667.875C1012.99,638.948 986.94,597.004 969.293,578.942C955.194,564.511 930.46,552.59 912.585,556.491C897.213,559.845 891.689,575.659 891.689,575.659C891.689,575.659 893.271,562.817 899.672,555.249C879.091,568.62 867.311,583.202 851,604.336Z" style="fill:#0079C1;"/>
    </g>
</svg>
