<?xml version="1.0" encoding="UTF-8" standalone="no"?>
<!DOCTYPE svg PUBLIC "-//W3C//DTD SVG 1.1//EN" "http://www.w3.org/Graphics/SVG/1.1/DTD/svg11.dtd">
<svg width="100%" height="100%" viewBox="0 0 300 300" version="1.1" xmlns="http://www.w3.org/2000/svg" xmlns:xlink="http://www.w3.org/1999/xlink" xml:space="preserve" xmlns:serif="http://www.serif.com/" style="fill-rule:evenodd;clip-rule:evenodd;stroke-linejoin:round;stroke-miterlimit:2;">
    <g transform="matrix(0.965022,0,0,0.972502,-998.382,-474.639)">
        <g>
            <g transform="matrix(1.03625,0,0,1.02828,1034.57,488.06)">
                <path d="M234.323,74.567C234.689,75.686 234.891,76.917 234.891,78.211C234.891,83.319 231.735,87.467 227.847,87.467C225.195,87.467 222.883,85.537 221.681,82.689C226.611,80.182 230.85,77.468 234.323,74.567Z" style="fill:#0079C1;"/>
            </g>
            <g transform="matrix(1.03625,0,0,1.02828,1034.57,488.06)">
                <path d="M66.26,75.047C69.763,77.883 74.005,80.537 78.914,82.989C77.68,85.672 75.439,87.467 72.881,87.467C68.993,87.467 65.837,83.319 65.837,78.211C65.837,77.1 65.986,76.034 66.26,75.047Z" style="fill:#0079C1;"/>
            </g>
            <g transform="matrix(1.03625,0,0,1.02828,1034.57,488.06)">
                <path d="M234.323,135.835C234.689,136.953 234.891,138.185 234.891,139.478C234.891,144.587 231.735,148.734 227.847,148.734C225.195,148.734 222.883,146.805 221.681,143.957C226.611,141.45 230.85,138.736 234.323,135.835Z" style="fill:#0079C1;"/>
            </g>
            <g transform="matrix(1.03625,0,0,1.02828,1034.57,488.06)">
                <path d="M66.26,136.314C69.763,139.15 74.005,141.804 78.914,144.257C77.68,146.94 75.439,148.734 72.881,148.734C68.993,148.734 65.837,144.587 65.837,139.478C65.837,138.367 65.986,137.302 66.26,136.314Z" style="fill:#0079C1;"/>
            </g>
            <g transform="matrix(1.03625,0,0,1.02828,1034.57,488.06)">
                <path d="M234.323,197.102C234.689,198.221 234.891,199.453 234.891,200.746C234.891,205.855 231.735,210.002 227.847,210.002C225.195,210.002 222.883,208.072 221.681,205.224C226.611,202.717 230.85,200.003 234.323,197.102Z" style="fill:#0079C1;"/>
            </g>
            <g transform="matrix(1.03625,0,0,1.02828,1034.57,488.06)">
                <path d="M66.26,197.582C69.763,200.418 74.005,203.072 78.914,205.525C77.68,208.207 75.439,210.002 72.881,210.002C68.993,210.002 65.837,205.855 65.837,200.746C65.837,199.635 65.986,198.569 66.26,197.582Z" style="fill:#0079C1;"/>
            </g>
        </g>
        <g transform="matrix(1.00597,0,0,1,-7.61348,0)">
            <path d="M1274.38,567C1240.2,593.885 1137.68,594.449 1107,567L1107,617.993C1125.98,645.497 1248.38,649.62 1274.38,617.993L1274.38,567Z" style="fill:#0079C1;"/>
        </g>
        <g transform="matrix(1.00597,0,0,1,-7.61348,63)">
            <path d="M1274.38,567C1240.2,593.885 1137.68,594.449 1107,567L1107,617.993C1125.98,645.497 1248.38,649.62 1274.38,617.993L1274.38,567Z" style="fill:#0079C1;"/>
        </g>
        <g transform="matrix(1.00597,0,0,1,-7.61348,126)">
            <path d="M1274.38,567C1240.2,593.885 1137.68,594.449 1107,567L1107,617.993C1125.98,645.497 1248.38,649.62 1274.38,617.993L1274.38,567Z" style="fill:#0079C1;"/>
        </g>
        <g transform="matrix(1.03625,0,0,1.02828,1034.57,488.06)">
            <path d="M149.982,33.007C194.933,33.007 231.428,45.208 231.428,60.237C231.428,75.265 194.933,87.467 149.982,87.467C105.03,87.467 68.535,75.265 68.535,60.237C68.535,45.208 105.03,33.007 149.982,33.007ZM105.591,48.601C116.988,48.601 126.241,53.815 126.241,60.237C126.241,66.659 116.988,71.873 105.591,71.873C94.194,71.873 84.941,66.659 84.941,60.237C84.941,53.815 94.194,48.601 105.591,48.601Z" style="fill:#0079C1;"/>
        </g>
        <g transform="matrix(0.146902,0,0,0.225384,969.175,425.813)">
            <ellipse cx="1189.99" cy="551" rx="84.398" ry="25" style="fill:#0079C1;"/>
        </g>
    </g>
</svg>
