<?xml version="1.0" encoding="UTF-8" standalone="no"?>
<!DOCTYPE svg PUBLIC "-//W3C//DTD SVG 1.1//EN" "http://www.w3.org/Graphics/SVG/1.1/DTD/svg11.dtd">
<svg width="100%" height="100%" viewBox="0 0 300 300" version="1.1" xmlns="http://www.w3.org/2000/svg" xmlns:xlink="http://www.w3.org/1999/xlink" xml:space="preserve" xmlns:serif="http://www.serif.com/" style="fill-rule:evenodd;clip-rule:evenodd;stroke-linejoin:round;stroke-miterlimit:2;">
    <g transform="matrix(0.149375,0,0,0.149375,-121.633,-189.24)">
        <g transform="matrix(4.33024,0,0,4.33024,2421.42,1682.16)">
            <path d="M0,70.752C-0.691,71.198 -1.117,71.491 -1.56,71.755C-11.719,77.79 -21.9,83.788 -32.017,89.891C-33.626,90.862 -34.831,90.883 -36.469,89.943C-75.95,67.29 -115.463,44.695 -154.965,22.081C-167.278,15.032 -179.576,7.955 -191.878,0.888C-192.376,0.602 -192.851,0.278 -193.539,-0.156C-191.79,-1.216 -190.205,-2.219 -188.58,-3.153C-179.345,-8.466 -170.091,-13.745 -160.868,-19.079C-159.205,-20.041 -157.775,-20.131 -156.02,-19.119C-104.561,10.533 -53.076,40.139 -1.596,69.754C-1.15,70.011 -0.722,70.3 0,70.752" style="fill:#0079C1;fill-rule:nonzero;"/>
        </g>
        <g transform="matrix(4.33024,0,0,4.33024,2235.51,1784.81)">
            <path d="M0,71.7C-3.835,73.902 -7.372,75.981 -10.955,77.978C-18.189,82.01 -25.473,85.951 -32.676,90.036C-34.411,91.02 -35.767,90.951 -37.484,89.97C-83.007,63.951 -128.556,37.979 -174.103,12.005C-180.105,8.581 -186.122,5.185 -192.13,1.771C-192.586,1.512 -193.022,1.219 -193.641,0.833C-192.142,-0.088 -190.774,-0.954 -189.383,-1.781C-180.176,-7.251 -170.936,-12.667 -161.777,-18.218C-159.958,-19.32 -158.631,-19.309 -156.762,-18.229C-136.942,-6.772 -117.068,4.593 -97.189,15.949C-67.051,33.166 -36.895,50.351 -6.755,67.566C-4.559,68.82 -2.438,70.204 0,71.7" style="fill:#0079C1;fill-rule:nonzero;"/>
        </g>
        <g transform="matrix(4.33024,0,0,4.33024,1725.47,2012.1)">
            <path d="M0,130.692C-0.626,130.369 -1.137,130.131 -1.624,129.851C-39.035,108.345 -76.444,86.836 -113.853,65.325C-127.161,57.673 -140.415,49.926 -153.799,42.409C-158.9,39.544 -158.14,39.93 -158.193,35.327C-158.277,27.885 -158.208,20.442 -158.205,12.999C-158.204,8.781 -158.205,4.563 -158.205,0C-157.454,0.381 -156.912,0.625 -156.399,0.92C-136.596,12.304 -116.8,23.7 -96.995,35.08C-65.342,53.267 -33.686,71.446 -2.024,89.616C-0.746,90.349 0.083,91.212 0.08,92.835C0.062,105.037 0.1,117.24 0.114,129.443C0.114,129.798 0.051,130.152 0,130.692" style="fill:#0079C1;fill-rule:nonzero;"/>
        </g>
        <g transform="matrix(4.33024,0,0,4.33024,1040.38,2805.41)">
            <path d="M0,-130.929C4.735,-128.207 9.11,-125.693 13.484,-123.176C47.653,-103.513 81.817,-83.841 115.991,-64.189C129.292,-56.539 142.605,-48.91 155.947,-41.332C157.616,-40.384 158.315,-39.246 158.306,-37.3C158.253,-25.522 158.308,-13.743 158.327,-1.965C158.328,-1.398 158.327,-0.832 158.327,0C157.55,-0.423 157.005,-0.706 156.473,-1.012C118.703,-22.727 80.934,-44.443 43.166,-66.161C30.271,-73.576 17.434,-81.091 4.46,-88.363C-0.652,-91.228 0.069,-90.754 0.013,-95.565C-0.073,-103.058 -0.003,-110.553 0,-118.048C0.001,-122.207 0,-126.366 0,-130.929" style="fill:#0079C1;fill-rule:nonzero;"/>
        </g>
        <g transform="matrix(4.33024,0,0,4.33024,2049.61,1892.33)">
            <path d="M0,71.504C-0.581,71.852 -1.019,72.123 -1.465,72.381C-11.015,77.892 -20.565,83.402 -30.115,88.912C-30.572,89.175 -31.059,89.393 -31.494,89.688C-33.374,90.962 -35.096,90.763 -37.073,89.633C-56.17,78.714 -75.311,67.874 -94.441,57.015C-126.968,38.551 -159.495,20.089 -192.022,1.625C-192.514,1.346 -192.997,1.052 -193.639,0.674C-193.226,0.372 -192.962,0.143 -192.666,-0.033C-182.277,-6.201 -171.873,-12.343 -161.508,-18.55C-160.011,-19.446 -158.771,-19.458 -157.255,-18.59C-106.213,10.64 -55.153,39.84 -4.099,69.049C-2.774,69.807 -1.478,70.617 0,71.504" style="fill:#0079C1;fill-rule:nonzero;"/>
        </g>
        <g transform="matrix(4.33024,0,0,4.33024,1725.35,2464.76)">
            <path d="M0,130.504C-0.684,130.131 -1.275,129.824 -1.852,129.493C-39.356,107.93 -76.859,86.366 -114.361,64.8C-127.487,57.252 -140.561,49.611 -153.763,42.198C-158.842,39.346 -158.114,39.752 -158.165,35.122C-158.246,27.786 -158.176,20.447 -158.172,13.11C-158.169,8.847 -158.171,4.584 -158.171,0C-156.391,1.012 -154.847,1.879 -153.312,2.762C-132.191,14.913 -111.072,27.068 -89.95,39.219C-74.681,48.002 -59.413,56.786 -44.139,65.561C-31.244,72.97 -18.346,80.373 -5.437,87.758C-4.206,88.462 -2.876,88.992 -1.618,89.65C-0.573,90.196 0.09,91.011 0.091,92.282C0.1,104.75 0.123,117.218 0.137,129.686C0.137,129.887 0.072,130.089 0,130.504" style="fill:#0079C1;fill-rule:nonzero;"/>
        </g>
        <g transform="matrix(4.33024,0,0,4.33024,1058.6,2308.94)">
            <path d="M0,-76.35C8.206,-80.967 16.094,-85.338 23.902,-89.848C25.779,-90.931 27.263,-90.938 29.151,-89.856C80.739,-60.302 132.355,-30.798 183.965,-1.281C184.495,-0.978 184.996,-0.622 185.764,-0.126C185.076,0.345 184.644,0.69 184.169,0.958C176.636,5.214 169.085,9.436 161.573,13.726C160.064,14.588 158.785,14.532 157.293,13.678C114.629,-10.758 71.953,-35.173 29.269,-59.574C20.247,-64.731 11.185,-69.818 2.147,-74.948C1.476,-75.329 0.85,-75.792 0,-76.35" style="fill:#0079C1;fill-rule:nonzero;"/>
        </g>
        <g transform="matrix(4.33024,0,0,4.33024,1772.44,1905.74)">
            <path d="M0,-76.455C8.155,-81.178 16.054,-85.743 23.941,-90.33C25.27,-91.103 26.462,-91.012 27.797,-90.248C79.805,-60.479 131.825,-30.733 183.842,-0.981C184.245,-0.751 184.628,-0.487 185.173,-0.142C182.538,1.417 180.061,2.9 177.566,4.353C172.369,7.378 167.114,10.307 161.984,13.441C160.01,14.648 158.407,14.408 156.571,13.306C152.049,10.59 147.489,7.936 142.909,5.318C95.741,-21.65 48.566,-48.605 1.395,-75.566C0.996,-75.794 0.618,-76.059 0,-76.455" style="fill:#0079C1;fill-rule:nonzero;"/>
        </g>
        <g transform="matrix(4.33024,0,0,4.33024,2596.4,2572.1)">
            <path d="M0,-148.672L0,-146.691C0.01,-134.964 -0.016,-123.237 0.067,-111.51C0.08,-109.532 -0.583,-108.333 -2.279,-107.292C-10.957,-101.963 -19.563,-96.517 -28.199,-91.12C-29.083,-90.567 -29.998,-90.065 -31.287,-89.313C-31.287,-90.543 -31.284,-91.458 -31.287,-92.372C-31.312,-99.765 -31.277,-107.159 -31.389,-114.551C-31.452,-118.761 -34.803,-120.648 -38.476,-118.58C-51.76,-111.102 -65.014,-103.571 -78.283,-96.067C-79.633,-95.303 -80.395,-94.199 -80.446,-92.629C-80.472,-91.838 -80.535,-91.047 -80.535,-90.256C-80.536,-81.646 -80.565,-73.035 -80.492,-64.425C-80.476,-62.576 -81.064,-61.43 -82.729,-60.501C-90.93,-55.929 -99.063,-51.236 -107.228,-46.599C-108.268,-46.009 -109.354,-45.5 -110.587,-44.866C-110.689,-45.422 -110.801,-45.754 -110.803,-46.086C-110.832,-53.267 -110.839,-60.448 -110.878,-67.629C-110.885,-68.786 -110.96,-69.952 -111.12,-71.098C-111.49,-73.754 -114.101,-75.289 -116.664,-74.377C-117.255,-74.167 -117.809,-73.839 -118.36,-73.53C-131.153,-66.367 -143.912,-59.142 -156.761,-52.08C-159.423,-50.617 -160.514,-48.768 -160.461,-45.771C-160.308,-37.216 -160.398,-28.656 -160.277,-20.1C-160.246,-17.95 -160.92,-16.628 -162.87,-15.555C-171.559,-10.776 -180.163,-5.844 -188.798,-0.969C-189.299,-0.686 -189.805,-0.414 -190.558,0C-190.602,-0.729 -190.662,-1.269 -190.663,-1.808C-190.672,-13.852 -190.652,-25.896 -190.707,-37.939C-190.715,-39.682 -189.74,-40.449 -188.432,-41.189C-170.116,-51.555 -151.777,-61.883 -133.509,-72.336C-90.014,-97.223 -46.554,-122.173 -3.076,-147.091C-2.178,-147.606 -1.233,-148.041 0,-148.672" style="fill:#0079C1;fill-rule:nonzero;"/>
        </g>
        <g transform="matrix(4.33024,0,0,4.33024,2460.93,2542.92)">
            <path d="M0,-30.155C0,-31.481 0.002,-32.37 0,-33.259C-0.024,-40.599 0.017,-47.94 -0.098,-55.279C-0.168,-59.724 -3.452,-61.533 -7.341,-59.341C-20.529,-51.91 -33.695,-44.439 -46.875,-36.993C-48.268,-36.206 -49.117,-35.11 -49.165,-33.468C-49.188,-32.676 -49.251,-31.885 -49.251,-31.094C-49.252,-22.432 -49.275,-13.769 -49.211,-5.107C-49.198,-3.37 -49.791,-2.289 -51.329,-1.43C-60.123,3.483 -68.871,8.479 -77.639,13.439C-78.134,13.718 -78.668,13.928 -79.323,14.236C-79.41,13.871 -79.512,13.64 -79.513,13.409C-79.549,6.281 -79.568,-0.847 -79.611,-7.975C-79.618,-9.185 -79.779,-10.395 -79.773,-11.605C-79.759,-14.836 -83.587,-16.425 -86.214,-14.881C-88.397,-13.598 -90.587,-12.327 -92.797,-11.092C-103.571,-5.072 -114.305,1.021 -125.162,6.885C-128.057,8.449 -129.254,10.384 -129.184,13.645C-129.002,22.199 -129.101,30.758 -128.999,39.314C-128.976,41.283 -129.636,42.505 -131.406,43.484C-140.129,48.31 -148.785,53.255 -157.466,58.155C-157.997,58.455 -158.543,58.727 -159.39,59.174C-159.39,58.141 -159.389,57.425 -159.39,56.71C-159.392,44.984 -159.371,33.257 -159.424,21.531C-159.432,19.893 -158.825,18.898 -157.429,18.106C-130.737,2.95 -104.083,-12.273 -77.369,-27.391C-66.731,-33.411 -55.604,-38.645 -45.352,-45.248C-30.92,-54.544 -15.654,-62.327 -0.952,-71.112C0.014,-71.688 30.625,-89.035 31.164,-89.329C31.213,-88.673 31.279,-88.187 31.28,-87.702C31.296,-75.817 31.284,-63.932 31.34,-52.048C31.348,-50.326 30.747,-49.239 29.263,-48.323C20.418,-42.863 11.627,-37.317 2.815,-31.805C2.024,-31.311 1.205,-30.86 0,-30.155" style="fill:#0079C1;fill-rule:nonzero;"/>
        </g>
        <g transform="matrix(4.33024,0,0,4.33024,1770.73,2383.18)">
            <path d="M0,147.974L0,145.284C-0.002,133.716 0.04,122.147 -0.05,110.579C-0.066,108.561 0.793,107.532 2.429,106.634C12.917,100.877 23.43,95.16 33.822,89.234C49.307,80.402 64.675,71.366 80.153,62.523C82.873,60.969 86.003,60.138 88.747,58.619C97.327,53.867 105.816,48.951 114.326,44.076C115.053,43.66 115.803,43.175 116.333,42.545C118.081,40.466 120.428,39.263 122.714,37.963C134.59,31.209 146.47,24.46 158.348,17.711C158.623,17.555 190.188,0.167 190.556,0C190.602,0.639 190.669,1.134 190.67,1.629C190.686,13.303 190.67,24.977 190.732,36.651C190.742,38.43 190.158,39.555 188.609,40.508C179.803,45.931 171.058,51.453 162.288,56.934C161.454,57.456 160.588,57.926 159.39,58.621C159.39,57.37 159.393,56.448 159.39,55.525C159.365,48.185 159.406,40.843 159.291,33.504C159.221,29.091 155.899,27.286 152.019,29.475C138.879,36.888 125.772,44.357 112.617,51.74C110.653,52.842 110.143,54.469 110.142,56.476C110.14,60.015 110.138,63.555 110.14,67.094C110.142,72.64 110.101,78.188 110.18,83.733C110.204,85.481 109.562,86.528 108.032,87.386C99.75,92.03 91.522,96.77 83.267,101.461C82.278,102.024 81.236,102.494 80.098,103.068C79.981,102.646 79.886,102.461 79.885,102.275C79.841,95.252 79.815,88.23 79.762,81.207C79.751,79.786 79.733,78.354 79.558,76.947C79.207,74.123 76.464,72.58 73.808,73.651C73.273,73.867 72.77,74.167 72.264,74.45C59.47,81.611 46.707,88.83 33.859,95.895C31.253,97.327 30.169,99.146 30.217,102.079C30.357,110.739 30.28,119.404 30.397,128.065C30.424,130.122 29.691,131.34 27.887,132.338C19.164,137.165 10.507,142.109 1.824,147.008C1.329,147.287 0.82,147.541 0,147.974" style="fill:#0079C1;fill-rule:nonzero;"/>
        </g>
        <g transform="matrix(4.33024,0,0,4.33024,2314.44,2291.68)">
            <path d="M0,-26.486C6.942,-22.552 13.573,-18.796 20.397,-14.929C12.041,-9.956 3.774,-5.037 -4.69,0C-4.734,-0.593 -4.781,-0.934 -4.781,-1.275C-4.785,-8.35 -4.769,-15.425 -4.804,-22.5C-4.809,-23.452 -4.592,-24.04 -3.667,-24.471C-2.285,-25.113 -0.987,-25.935 0,-26.486" style="fill:#0079C1;fill-rule:nonzero;"/>
        </g>
        <g transform="matrix(4.33024,0,0,4.33024,2400.85,2467.14)">
            <path d="M0,-3.27C-8.208,1.613 -16.302,6.427 -24.57,11.345C-24.646,10.815 -24.734,10.484 -24.734,10.154C-24.742,3.19 -24.726,-3.775 -24.76,-10.739C-24.764,-11.576 -24.564,-12.089 -23.783,-12.483C-22.33,-13.217 -20.935,-14.065 -19.959,-14.615C-13.17,-10.756 -6.645,-7.047 0,-3.27" style="fill:#0079C1;fill-rule:nonzero;"/>
        </g>
        <g transform="matrix(4.33024,0,0,4.33024,1947.89,2375.41)">
            <path d="M0,25.854C0,24.103 0.001,22.645 0,21.186C-0.006,15.066 -0.019,8.946 -0.016,2.827C-0.016,1.373 2.059,0 3.278,0.697C9.816,4.439 16.333,8.219 22.856,11.987C22.989,12.063 23.112,12.154 23.462,12.384C15.586,16.906 7.917,21.309 0,25.854" style="fill:#0079C1;fill-rule:nonzero;"/>
        </g>
        <g transform="matrix(4.33024,0,0,4.33024,2049.29,2659.02)">
            <path d="M0,-1.174C-7.793,3.301 -15.455,7.701 -23.268,12.187C-23.327,11.743 -23.408,11.414 -23.409,11.085C-23.424,4.011 -23.434,-3.064 -23.434,-10.139C-23.434,-11.832 -20.972,-13.361 -19.521,-12.532C-13.25,-8.947 -6.998,-5.332 -0.742,-1.723C-0.53,-1.601 -0.346,-1.432 0,-1.174" style="fill:#0079C1;fill-rule:nonzero;"/>
        </g>
        <g transform="matrix(4.33024,0,0,4.33024,2350.89,2596.85)">
            <path d="M0,0.044C5.63,-3.091 10.989,-6.076 16.543,-9.168L16.543,9.212C11.029,6.156 5.624,3.161 0,0.044" style="fill:#0079C1;fill-rule:nonzero;"/>
        </g>
        <g transform="matrix(4.33024,0,0,4.33024,2350.91,2145.09)">
            <path d="M0,0.051C5.584,-3.062 10.951,-6.055 16.511,-9.155L16.511,9.206C11.022,6.162 5.65,3.184 0,0.051" style="fill:#0079C1;fill-rule:nonzero;"/>
        </g>
        <g transform="matrix(4.33024,0,0,4.33024,2422.56,2332.31)">
            <path d="M0,18.396C-5.545,15.322 -10.915,12.345 -16.544,9.225C-10.944,6.103 -5.562,3.102 0,0L0,18.396Z" style="fill:#0079C1;fill-rule:nonzero;"/>
        </g>
        <g transform="matrix(4.33024,0,0,4.33024,2075.23,2753.27)">
            <path d="M0,18.65C-5.435,15.515 -10.656,12.502 -16.094,9.366C-10.615,6.178 -5.402,3.144 0,0L0,18.65Z" style="fill:#0079C1;fill-rule:nonzero;"/>
        </g>
        <g transform="matrix(4.33024,0,0,4.33024,2075.34,2609.25)">
            <path d="M0,-18.667L0,0C-5.355,-3.082 -10.595,-6.099 -16.123,-9.281C-10.653,-12.466 -5.421,-15.511 0,-18.667" style="fill:#0079C1;fill-rule:nonzero;"/>
        </g>
        <g transform="matrix(4.33024,0,0,4.33024,2075.26,2301.5)">
            <path d="M0,18.651C-5.364,15.562 -10.587,12.555 -16.102,9.379C-10.642,6.198 -5.416,3.154 0,0L0,18.651Z" style="fill:#0079C1;fill-rule:nonzero;"/>
        </g>
    </g>
</svg>
